<svg xmlns="http://www.w3.org/2000/svg" version="1.1" xmlns:xlink="http://www.w3.org/1999/xlink" width="97.13" height="113.27"><svg xmlns="http://www.w3.org/2000/svg" xmlns:xlink="http://www.w3.org/1999/xlink" version="1.1" x="0px" y="0px" style="enable-background:new 0 0 146.4 145;" xml:space="preserve" viewBox="26.08 15.21 97.13 113.27"> <style type="text/css">.st0{fill:none;stroke:#A8DEEC;stroke-width:7;stroke-miterlimit:10;} 	.st1{fill:none;stroke:#E0F3F8;stroke-width:6;stroke-miterlimit:10;} .st2{fill:#E0F3F8;} .st3{fill:#260968;}.st4{opacity:0.3804;} .st5{fill:#E0F3F8;stroke:#A8DEEC;stroke-width:5;stroke-miterlimit:10;} .st6{fill:#E0F3F8;stroke:#A8DEEC;stroke-miterlimit:10;} .st7{fill:#A8DEEC;} .st8{fill:#E0F3F8;stroke:#A8DFEC;stroke-width:0.5;stroke-miterlimit:10;} .st9{opacity:0.4588;} 	.st10{stroke:#A8DFEC;stroke-width:3;stroke-miterlimit:10;} .st11{opacity:0.2;} .st12{stroke:#A8DFEC;stroke-width:4;stroke-miterlimit:10;} .st13{fill:#E0F3F8;stroke:#A8DFEC;stroke-miterlimit:10;}</style><path class="st0" d="M91.7,20.38l28.01,5.6c0,0,0,40.85,0,63s-45,36-45,36s-44.7-14.3-45-36c-0.3-21.7,0-63,0-63 C48.42,22.35,72.79,15.57,91.7,20.38z"></path><path class="st1" d="M91.7,20.38l28.01,5.6c0,0,0,40.85,0,63s-45,36-45,36s-44.7-14.3-45-36c-0.3-21.7,0-63,0-63 C48.42,22.35,72.79,15.57,91.7,20.38z"></path><path class="st8" d="M41.09,52.6l0.01-8.92c0,0,6.57-0.42,9.95-5.03c0.07-0.09,10.4,0.07,10.4,0.07l0.12,52.11l-10.58-0.02 l0.08-41.04c0-0.02-0.03-0.03-0.04-0.01C50.8,50.23,49.21,52.6,41.09,52.6z"></path><path class="st8" d="M95.05,38.7H82.77L69.98,90.87h11.17l1.92-8.71h11.56l1.84,8.71l11.58,0.04L95.05,38.7z M85.04,72.77 l3.68-22.98l3.8,22.98H85.04z"></path></svg><style>@media (prefers-color-scheme: light) { :root { filter: contrast(1) brightness(0.5); } }
@media (prefers-color-scheme: dark) { :root { filter: none; } }
</style></svg>